TITLE ""
FILE "P1Q_t_0749-0758.mp3" MP3
  TRACK 01 AUDIO
    TITLE "P1Q_t_0749-0758_01"
    INDEX 01 00:00:00
  TRACK 02 AUDIO
    TITLE "P1Q_t_0749-0758_02"
    INDEX 01 00:01:45
  TRACK 03 AUDIO
    TITLE "P1Q_t_0749-0758_03"
    INDEX 01 00:01:65
  TRACK 04 AUDIO
    TITLE "P1Q_t_0749-0758_04"
    INDEX 01 00:02:70
  TRACK 05 AUDIO
    TITLE "P1Q_t_0749-0758_05"
    INDEX 01 00:03:16
  TRACK 06 AUDIO
    TITLE "P1Q_t_0749-0758_06"
    INDEX 01 00:07:14
  TRACK 07 AUDIO
    TITLE "P1Q_t_0749-0758_07"
    INDEX 01 00:07:61
  TRACK 08 AUDIO
    TITLE "P1Q_t_0749-0758_08"
    INDEX 01 00:08:73
  TRACK 09 AUDIO
    TITLE "P1Q_t_0749-0758_09"
    INDEX 01 00:09:15
  TRACK 10 AUDIO
    TITLE "P1Q_t_0749-0758_10"
    INDEX 01 00:11:32
  TRACK 11 AUDIO
    TITLE "P1Q_t_0749-0758_11"
    INDEX 01 00:11:53
  TRACK 12 AUDIO
    TITLE "P1Q_t_0749-0758_12"
    INDEX 01 00:15:47
  TRACK 13 AUDIO
    TITLE "P1Q_t_0749-0758_13"
    INDEX 01 00:16:21
  TRACK 14 AUDIO
    TITLE "P1Q_t_0749-0758_14"
    INDEX 01 00:17:38
  TRACK 15 AUDIO
    TITLE "P1Q_t_0749-0758_15"
    INDEX 01 00:17:58
  TRACK 16 AUDIO
    TITLE "P1Q_t_0749-0758_16"
    INDEX 01 00:21:71
  TRACK 17 AUDIO
    TITLE "P1Q_t_0749-0758_17"
    INDEX 01 00:22:16
  TRACK 18 AUDIO
    TITLE "P1Q_t_0749-0758_18"
    INDEX 01 00:26:10
  TRACK 19 AUDIO
    TITLE "P1Q_t_0749-0758_19"
    INDEX 01 00:26:55
  TRACK 20 AUDIO
    TITLE "P1Q_t_0749-0758_20"
    INDEX 01 00:27:74
  TRACK 21 AUDIO
    TITLE "P1Q_t_0749-0758_21"
    INDEX 01 00:28:20
  TRACK 22 AUDIO
    TITLE "P1Q_t_0749-0758_22"
    INDEX 01 00:31:44
  TRACK 23 AUDIO
    TITLE "P1Q_t_0749-0758_23"
    INDEX 01 00:31:70
  TRACK 24 AUDIO
    TITLE "P1Q_t_0749-0758_24"
    INDEX 01 00:36:65
  TRACK 25 AUDIO
    TITLE "P1Q_t_0749-0758_25"
    INDEX 01 00:37:33
  TRACK 26 AUDIO
    TITLE "P1Q_t_0749-0758_26"
    INDEX 01 00:38:30
  TRACK 27 AUDIO
    TITLE "P1Q_t_0749-0758_27"
    INDEX 01 00:38:52
  TRACK 28 AUDIO
    TITLE "P1Q_t_0749-0758_28"
    INDEX 01 00:39:51
  TRACK 29 AUDIO
    TITLE "P1Q_t_0749-0758_29"
    INDEX 01 00:39:65
  TRACK 30 AUDIO
    TITLE "P1Q_t_0749-0758_30"
    INDEX 01 00:45:17
  TRACK 31 AUDIO
    TITLE "P1Q_t_0749-0758_31"
    INDEX 01 00:45:72
  TRACK 32 AUDIO
    TITLE "P1Q_t_0749-0758_32"
    INDEX 01 00:46:69
  TRACK 33 AUDIO
    TITLE "P1Q_t_0749-0758_33"
    INDEX 01 00:47:16
  TRACK 34 AUDIO
    TITLE "P1Q_t_0749-0758_34"
    INDEX 01 00:49:38
  TRACK 35 AUDIO
    TITLE "P1Q_t_0749-0758_35"
    INDEX 01 00:49:58
  TRACK 36 AUDIO
    TITLE "P1Q_t_0749-0758_36"
    INDEX 01 00:53:59
  TRACK 37 AUDIO
    TITLE "P1Q_t_0749-0758_37"
    INDEX 01 00:54:30
  TRACK 38 AUDIO
    TITLE "P1Q_t_0749-0758_38"
    INDEX 01 00:55:39
  TRACK 39 AUDIO
    TITLE "P1Q_t_0749-0758_39"
    INDEX 01 00:55:60
  TRACK 40 AUDIO
    TITLE "P1Q_t_0749-0758_40"
    INDEX 01 00:58:31
  TRACK 41 AUDIO
    TITLE "P1Q_t_0749-0758_41"
    INDEX 01 00:58:51
  TRACK 42 AUDIO
    TITLE "P1Q_t_0749-0758_42"
    INDEX 01 01:02:72
  TRACK 43 AUDIO
    TITLE "P1Q_t_0749-0758_43"
    INDEX 01 01:03:44
  TRACK 44 AUDIO
    TITLE "P1Q_t_0749-0758_44"
    INDEX 01 01:04:55
  TRACK 45 AUDIO
    TITLE "P1Q_t_0749-0758_45"
    INDEX 01 01:05:02
  TRACK 46 AUDIO
    TITLE "P1Q_t_0749-0758_46"
    INDEX 01 01:07:32
  TRACK 47 AUDIO
    TITLE "P1Q_t_0749-0758_47"
    INDEX 01 01:07:54
  TRACK 48 AUDIO
    TITLE "P1Q_t_0749-0758_48"
    INDEX 01 01:11:67
  TRACK 49 AUDIO
    TITLE "P1Q_t_0749-0758_49"
    INDEX 01 01:12:41
  TRACK 50 AUDIO
    TITLE "P1Q_t_0749-0758_50"
    INDEX 01 01:13:58
  TRACK 51 AUDIO
    TITLE "P1Q_t_0749-0758_51"
    INDEX 01 01:14:05
  TRACK 52 AUDIO
    TITLE "P1Q_t_0749-0758_52"
    INDEX 01 01:16:55
  TRACK 53 AUDIO
    TITLE "P1Q_t_0749-0758_53"
    INDEX 01 01:16:74
  TRACK 54 AUDIO
    TITLE "P1Q_t_0749-0758_54"
    INDEX 01 01:21:70
  TRACK 55 AUDIO
    TITLE "P1Q_t_0749-0758_55"
    INDEX 01 01:22:40
  TRACK 56 AUDIO
    TITLE "P1Q_t_0749-0758_56"
    INDEX 01 01:23:55
  TRACK 57 AUDIO
    TITLE "P1Q_t_0749-0758_57"
    INDEX 01 01:24:03
  TRACK 58 AUDIO
    TITLE "P1Q_t_0749-0758_58"
    INDEX 01 01:26:06
  TRACK 59 AUDIO
    TITLE "P1Q_t_0749-0758_59"
    INDEX 01 01:26:20
  TRACK 60 AUDIO
    TITLE "P1Q_t_0749-0758_60"
    INDEX 01 01:29:63
